# xmcd
#
# Track frame offsets:
#	150
#	15341
#	28264
#	45217
#	64020
#	79617
#	95885
#	112010
#	129628
#	144658
#	163068
#	180843
#	196604
#	216537
#	234762
#
# Disc length: 3339 seconds
#
# Revision: 1
# Processed by: cddbd v1.5.2PL0 Copyright (c) Steve Scherf et al.
# Submitted via: audiograbber 1.83.01
#
DISCID=c20d090f
DTITLE=Various Artist - More Best Country Hits of Today - CD3
DYEAR=2006
DGENRE=Country
TTITLE0=Blake Shelton (covered from) - Some Beach
TTITLE1=LeeAnn Rimes (covered from) - Notthing 'bout Love makes Sense
TTITLE2=Rascal Flatts (covered from) - Bless the broken Road
TTITLE3=Keith Urban (covered from) - You're my better Half
TTITLE4=Lonestar (covered from) - Mr. Mom
TTITLE5=Reba McEntire (covered from) - He gets that from me
TTITLE6=Toby Keith (covered from) - Stays in Mexico
TTITLE7=George Strait (covered from) - I hate everything
TTITLE8=Alan Jackson (covered from) - Monday Morning Church
TTITLE9=Gretchen Wilson (covered from) - When I think about cheatin'
TTITLE10=Andy Griggs (covered from) - She thinks she needs me
TTITLE11=Brad Paisley (covered from) - Mud on the Tires
TTITLE12=Kenny Chesney (covered from) - The Woman with you
TTITLE13=Kenny Chesney (covered from) - I go back
TTITLE14=Gary Allan (covered from) - Nothing on but the Radio
EXTD=Not Original Artists!\nPerformed by the Cream of the best Singers and Musi
EXTD=cians from Nashville, Tennessee
EXTT0=
EXTT1=
EXTT2=
EXTT3=
EXTT4=
EXTT5=
EXTT6=
EXTT7=
EXTT8=
EXTT9=
EXTT10=
EXTT11=
EXTT12=
EXTT13=
EXTT14=
PLAYORDER=
